<svg width="15" height="14" viewBox="0 0 15 14" fill="none" xmlns="http://www.w3.org/2000/svg">
    <path d="M6.4375 1.09375L7.125 0.40625C7.4375 0.125 7.90625 0.125 8.1875 0.40625L14.2812 6.46875C14.5625 6.78125 14.5625 7.25 14.2812 7.53125L8.1875 13.625C7.90625 13.9062 7.4375 13.9062 7.125 13.625L6.4375 12.9375C6.15625 12.625 6.15625 12.1562 6.4375 11.8438L10.2188 8.25H1.25C0.8125 8.25 0.5 7.9375 0.5 7.5V6.5C0.5 6.09375 0.8125 5.75 1.25 5.75H10.2188L6.4375 2.1875C6.15625 1.875 6.125 1.40625 6.4375 1.09375Z" fill="white"/>
</svg>