<svg width="14" height="14" viewBox="0 0 14 14" fill="none" xmlns="http://www.w3.org/2000/svg">
<path d="M12.7372 1.40785L10.1394 0.80758C9.8646 0.732546 9.56485 0.882613 9.43996 1.15774L8.24097 3.959C8.14105 4.20911 8.21599 4.48424 8.41582 4.65931L9.93954 5.90988C9.04029 7.81073 7.46662 9.41145 5.51826 10.3369L4.26931 8.81118C4.09446 8.61109 3.81969 8.53606 3.5699 8.6361L0.772258 9.83665C0.49749 9.9617 0.372595 10.2618 0.422553 10.537L1.02205 13.1381C1.09698 13.4133 1.3218 13.5883 1.62154 13.5883C8.01616 13.5883 13.2118 8.411 13.2118 1.98311C13.2118 1.70798 13.0119 1.48288 12.7372 1.40785Z" fill="white"/>
</svg>
