<svg width="18" height="18" viewBox="0 0 18 18" fill="none" xmlns="http://www.w3.org/2000/svg">
<path d="M9 3.48002C10.69 3.48002 11.83 4.21002 12.48 4.82002L15.02 2.34001C13.46 0.890005 11.43 0 9 0C5.47998 0 2.43997 2.02001 0.959961 4.96003L3.86998 7.22004C4.59998 5.05003 6.61999 3.48002 9 3.48002Z" fill="white"/>
<path d="M17.6405 9.19987C17.6405 8.45987 17.5805 7.91987 17.4505 7.35986H9.00049V10.6999H13.9605C13.8605 11.5299 13.3205 12.7799 12.1205 13.6199L14.9605 15.8199C16.6605 14.2499 17.6405 11.9399 17.6405 9.19987Z" fill="white"/>
<path d="M3.88002 10.7797C3.69002 10.2197 3.58002 9.61974 3.58002 8.99974C3.58002 8.37973 3.69002 7.77973 3.87002 7.21973L0.960005 4.95972C0.350002 6.17972 0 7.54973 0 8.99974C0 10.4497 0.350002 11.8198 0.960005 13.0398L3.88002 10.7797Z" fill="white"/>
<path d="M9.00026 17.9998C11.4303 17.9998 13.4703 17.1998 14.9603 15.8198L12.1203 13.6198C11.3603 14.1498 10.3403 14.5198 9.00026 14.5198C6.62024 14.5198 4.60023 12.9498 3.88023 10.7798L0.970215 13.0398C2.45022 15.9798 5.48024 17.9998 9.00026 17.9998Z" fill="white"/>
</svg>
