<svg width="25" height="25" viewBox="0 0 25 25" fill="none" xmlns="http://www.w3.org/2000/svg">
<path d="M12.5 6.21094C15.9453 6.21094 18.7891 9.05469 18.7891 12.5C18.7891 16 15.9453 18.7891 12.5 18.7891C9 18.7891 6.21094 16 6.21094 12.5C6.21094 9.05469 9 6.21094 12.5 6.21094ZM12.5 16.6016C14.7422 16.6016 16.5469 14.7969 16.5469 12.5C16.5469 10.2578 14.7422 8.45312 12.5 8.45312C10.2031 8.45312 8.39844 10.2578 8.39844 12.5C8.39844 14.7969 10.2578 16.6016 12.5 16.6016ZM20.4844 5.99219C20.4844 6.8125 19.8281 7.46875 19.0078 7.46875C18.1875 7.46875 17.5312 6.8125 17.5312 5.99219C17.5312 5.17188 18.1875 4.51562 19.0078 4.51562C19.8281 4.51562 20.4844 5.17188 20.4844 5.99219ZM24.6406 7.46875C24.75 9.49219 24.75 15.5625 24.6406 17.5859C24.5312 19.5547 24.0938 21.25 22.6719 22.7266C21.25 24.1484 19.5 24.5859 17.5312 24.6953C15.5078 24.8047 9.4375 24.8047 7.41406 24.6953C5.44531 24.5859 3.75 24.1484 2.27344 22.7266C0.851562 21.25 0.414062 19.5547 0.304688 17.5859C0.195312 15.5625 0.195312 9.49219 0.304688 7.46875C0.414062 5.5 0.851562 3.75 2.27344 2.32812C3.75 0.90625 5.44531 0.46875 7.41406 0.359375C9.4375 0.25 15.5078 0.25 17.5312 0.359375C19.5 0.46875 21.25 0.90625 22.6719 2.32812C24.0938 3.75 24.5312 5.5 24.6406 7.46875ZM22.0156 19.7188C22.6719 18.1328 22.5078 14.3047 22.5078 12.5C22.5078 10.75 22.6719 6.92188 22.0156 5.28125C21.5781 4.24219 20.7578 3.36719 19.7188 2.98438C18.0781 2.32812 14.25 2.49219 12.5 2.49219C10.6953 2.49219 6.86719 2.32812 5.28125 2.98438C4.1875 3.42188 3.36719 4.24219 2.92969 5.28125C2.27344 6.92188 2.4375 10.75 2.4375 12.5C2.4375 14.3047 2.27344 18.1328 2.92969 19.7188C3.36719 20.8125 4.1875 21.6328 5.28125 22.0703C6.86719 22.7266 10.6953 22.5625 12.5 22.5625C14.25 22.5625 18.0781 22.7266 19.7188 22.0703C20.7578 21.6328 21.6328 20.8125 22.0156 19.7188Z" fill="white"/>
</svg>
