<svg xmlns="http://www.w3.org/2000/svg" width="30" height="30" viewBox="0 0 30 30" fill="currentColor"><path fill-rule="evenodd" clip-rule="evenodd" d="M10.2755 24V11.8548H6.23863V24H10.2755ZM8.25703 10.1966C9.66476 10.1966 10.541 9.26397 10.541 8.09847C10.5147 6.90674 9.66476 6 8.28374 6C6.90286 6 6 6.90674 6 8.09847C6 9.26397 6.87601 10.1966 8.23072 10.1966H8.25703Z" fill="currentColor"></path><path fill-rule="evenodd" clip-rule="evenodd" d="M12.5083 24H16.5451V17.2176C16.5451 16.8546 16.5713 16.492 16.6779 16.2325C16.9698 15.5073 17.634 14.7562 18.7492 14.7562C20.2099 14.7562 20.7942 15.8699 20.7942 17.5026V24H24.8307V17.0361C24.8307 13.3057 22.8392 11.5698 20.1832 11.5698C18.0055 11.5698 17.0494 12.7871 16.5183 13.6162H16.5452V11.8548H12.5084C12.5614 12.9944 12.5083 24 12.5083 24Z" fill="currentColor"></path></svg>