<svg width="20" height="14" viewBox="0 0 20 14" fill="none" xmlns="http://www.w3.org/2000/svg">
<path fill-rule="evenodd" clip-rule="evenodd" d="M17.3491 0.417968C18.1872 0.647952 18.8473 1.3256 19.0713 2.18615C19.4783 3.74579 19.4783 7 19.4783 7C19.4783 7 19.4783 10.2541 19.0713 11.8139C18.8473 12.6744 18.1872 13.352 17.3491 13.5821C15.8302 14 9.73917 14 9.73917 14C9.73917 14 3.64809 14 2.12912 13.5821C1.29099 13.352 0.630943 12.6744 0.406942 11.8139C0 10.2541 0 7 0 7C0 7 0 3.74579 0.406942 2.18615C0.630943 1.3256 1.29099 0.647952 2.12912 0.417968C3.64809 0 9.73917 0 9.73917 0C9.73917 0 15.8302 0 17.3491 0.417968ZM7.91319 4.26085V10.3478L12.7828 7.30445L7.91319 4.26085Z" fill="white"/>
</svg>
